<svg xmlns="http://www.w3.org/2000/svg" viewBox="0 0 512 512" role="img" aria-label="VibefyCode" color="#16205A">
  <title>VibefyCode</title>
  <g fill="none" stroke-linecap="round" stroke-linejoin="round">
    <g stroke="currentColor" stroke-width="6" fill="none" opacity="0.45">
      <path d="M96 300 L138 300 L160 278"/>
      <path d="M110 366 L152 366 L172 346"/>
      <path d="M150 232 L120 232 L104 216"/>
      <path d="M118 424 L166 424"/>
      <path d="M404 300 L440 300 L456 284"/>
      <path d="M398 232 L432 232"/>
    </g>
    <g fill="currentColor" opacity="0.45">
      <circle cx="92" cy="300" r="8"/>
      <circle cx="106" cy="366" r="8"/>
      <circle cx="100" cy="212" r="8"/>
      <circle cx="114" cy="424" r="8"/>
      <circle cx="460" cy="280" r="8"/>
      <circle cx="436" cy="232" r="8"/>
      <rect x="388" y="400" width="15" height="26" rx="3"/>
      <rect x="411" y="384" width="15" height="42" rx="3"/>
      <rect x="434" y="362" width="15" height="64" rx="3"/>
    </g>
    <path d="M268 402 C312 360 356 320 398 276" stroke="currentColor" stroke-width="26"/>
    <path d="M452 232 L414 302 L374 256 Z" fill="currentColor" stroke="none"/>
    <path d="M132 118 C160 214 200 306 244 372" stroke="currentColor" stroke-width="44"/>
    <path d="M244 372 C238 404 208 416 186 400 C164 384 168 350 194 342 C220 334 240 352 240 374" stroke="currentColor" stroke-width="22"/>
    <circle cx="200" cy="372" r="13" fill="#FFFFFF" stroke="none"/>
    <path d="M256 372 C300 306 340 214 368 118" stroke="#FFFFFF" stroke-width="62"/>
    <path d="M256 372 C300 306 340 214 368 118" stroke="currentColor" stroke-width="44"/>
  </g>
</svg>
